<svg xmlns="http://www.w3.org/2000/svg" xmlns:xlink="http://www.w3.org/1999/xlink" style="display: none;">
<symbol id="icon-tg" xmlns="http://www.w3.org/2000/svg" x="0px" y="0px"
	 viewBox="-21 -51 682.66669 682" xml:space="preserve">
<path fill="currentColor" d="m640-1.667969-640 272.039063 167.777344 66.585937 59.726562 224.507813 109.976563-106.558594 178.917969 123.570312zm-403.78125 367.402344-6.457031 58.535156-24.800781-93.234375 435.039062-332.703125zm0 0"/>
</symbol>

<symbol id="icon-search" viewBox="0 0 12 12" fill="none" xmlns="http://www.w3.org/2000/svg">
<path d="M4.84974 0C6.13597 0 7.36952 0.51228 8.27903 1.42415C9.18853 2.33601 9.69948 3.57277 9.69948 4.86234C9.69948 6.0667 9.25927 7.17382 8.53554 8.0266L8.73699 8.22857H9.32642L12 10.9091L10.8497 12L8.20725 9.35065V8.75969L8.0058 8.55771C7.15523 9.28333 6.05098 9.72468 4.84974 9.72468C3.56351 9.72468 2.32996 9.21239 1.42046 8.30053C0.510953 7.38866 0 6.15191 0 4.86234C0 3.57277 0.510953 2.33601 1.42046 1.42415C2.32996 0.51228 3.56351 0 4.84974 0ZM4.875 1.125C3.00972 1.125 1.125 3.00487 1.125 4.875C1.125 6.74513 3.00972 8.625 4.875 8.625C6.74028 8.625 8.53554 6.73247 8.53554 4.86234C8.53554 2.99221 6.74028 1.125 4.875 1.125Z" fill="currentColor"/>
</symbol>

</svg>